<svg width="40" height="40" viewBox="0 0 40 40" fill="none" xmlns="http://www.w3.org/2000/svg">
<path d="M36.6772 5.00252C35.846 5.02892 35.0579 5.37822 34.4801 5.97626C26.6519 13.8214 20.7247 20.3298 13.3584 27.822L5.26922 20.9811C4.94955 20.709 4.5794 20.5024 4.17992 20.3733C3.78043 20.2442 3.35942 20.1951 2.94094 20.2287C2.52245 20.2623 2.11469 20.378 1.74092 20.5692C1.36716 20.7604 1.03471 21.0233 0.762573 21.343C0.490433 21.6627 0.283928 22.0329 0.154848 22.4324C0.0257677 22.8319 -0.023358 23.2528 0.0102749 23.6713C0.0439077 24.0898 0.15964 24.4976 0.350865 24.8713C0.54209 25.2451 0.805061 25.5775 1.12476 25.8496L11.5109 34.6379C12.1235 35.1621 12.9116 35.4354 13.7173 35.4029C14.5229 35.3705 15.2865 35.0348 15.855 34.4631C24.443 25.8568 30.5681 18.9694 39.024 10.4952C39.49 10.0453 39.8082 9.46441 39.9366 8.82957C40.065 8.19474 39.9974 7.5359 39.743 6.9403C39.4885 6.34471 39.0591 5.84049 38.5116 5.49444C37.9641 5.14839 37.3243 4.97682 36.6772 5.00252Z" fill="white"/>
</svg>
