<svg width="40" height="40" viewBox="0 0 40 40" fill="none" xmlns="http://www.w3.org/2000/svg">
<g clip-path="url(#clip0_528_625)">
<path d="M6.00003 24.0015C5.69628 24.0015 5.40938 24.1384 5.21815 24.3765C5.21815 24.3765 3.94316 25.9665 2.6625 27.9184C2.02313 28.8934 1.3781 29.9603 0.879372 30.9972C0.382469 32.0322 0 33.011 0 34.0029C0 37.3048 2.69816 40.003 6.00008 40.003C9.302 40.003 12.0002 37.3048 12.0002 34.0029C12.0002 33.011 11.6177 32.0322 11.1189 30.9972C10.6201 29.9622 9.97516 28.8953 9.33579 27.9184C8.057 25.9665 6.78201 24.3765 6.78201 24.3765C6.59263 24.1402 6.30378 24.0015 6.00003 24.0015Z" fill="black"/>
<path d="M24.6268 0C24.3625 0 24.1075 0.105001 23.9199 0.292506C17.7888 6.42363 11.6553 12.5572 5.52417 18.6883C5.13416 19.0783 5.13416 19.712 5.52417 20.102C5.91417 20.492 6.54793 20.492 6.93793 20.102L7.95607 19.0839L24.4976 35.6235C24.8876 36.0135 25.5213 36.0135 25.9113 35.6235L39.7077 21.8271C40.0977 21.4371 40.0977 20.8034 39.7077 20.4134L23.1681 3.87571L25.3356 1.70819C25.7256 1.31818 25.7256 0.684432 25.3356 0.294427C25.1481 0.106926 24.8931 0.00192492 24.6287 0.00192492L24.6268 0ZM21.7524 5.28967L31.0357 14.5711L10.6148 16.4274L21.7524 5.28967Z" fill="black"/>
</g>
<defs>
<clipPath id="clip0_528_625">
<rect width="40" height="40" fill="black"/>
</clipPath>
</defs>
</svg>
