<svg width="40" height="40" viewBox="0 0 40 40" fill="none" xmlns="http://www.w3.org/2000/svg">
<g clip-path="url(#clip0_552_1409)">
<path d="M24.5084 4.8627L1.23226 4.86471H1.21018H1.20817C0.539866 4.86471 0 5.40657 0 6.07488C0 6.74519 0.543873 7.28907 1.21218 7.28907L24.5084 7.28706L24.5084 4.8627ZM32.3054 0H29.58C27.6614 0.00602083 26.1081 1.56339 26.1081 3.48195V8.66791C26.1081 10.5865 27.6614 12.1438 29.58 12.1499H32.3054C34.224 12.1438 35.7773 10.5865 35.7773 8.66791L35.7753 7.28917L38.7877 7.28716C39.458 7.28716 39.9998 6.74529 39.9998 6.07498C39.9998 5.40467 39.458 4.86079 38.7877 4.86079H35.7773V3.48205C35.7773 1.56344 34.224 0.00601107 32.3054 0ZM16.8662 18.7021L16.8682 21.1285H38.7875C39.4578 21.1285 39.9997 20.5866 39.9997 19.9163C39.9997 19.246 39.4578 18.7041 38.7895 18.7041L16.8662 18.7021ZM9.06925 13.8414C7.15064 13.8454 5.59732 15.4028 5.59732 17.3234V18.7041L1.21222 18.7021C0.543912 18.7021 3.87073e-05 19.246 3.87073e-05 19.9143C3.87073e-05 20.5846 0.541908 21.1285 1.21222 21.1285H5.59732V22.5072C5.59732 24.4278 7.15064 25.9852 9.06925 25.9912H11.7966C13.7152 25.9852 15.2686 24.4278 15.2686 22.5092V17.3233C15.2686 15.4027 13.7152 13.8453 11.7966 13.8413L9.06925 13.8414ZM1.21222 32.5436C0.541908 32.5436 3.87073e-05 33.0854 3.87073e-05 33.7557C3.87073e-05 34.4261 0.541908 34.9679 1.21222 34.9679L18.3268 34.9699V32.5436H1.21222ZM23.3987 27.6809V27.6829C21.4801 27.6869 19.9268 29.2443 19.9268 31.1628V36.3488C19.9268 38.2694 21.4801 39.8247 23.3987 39.8307H26.1241C28.0427 39.8247 29.596 38.2693 29.596 36.3488V34.97H38.7878C39.4581 34.97 40 34.4262 40 33.7559C40 33.0875 39.4581 32.5437 38.7898 32.5437H29.596V31.1629C29.596 29.2443 28.0426 27.687 26.124 27.681L23.3987 27.6809Z" fill="black"/>
</g>
<defs>
<clipPath id="clip0_552_1409">
<rect width="40" height="40" fill="black"/>
</clipPath>
</defs>
</svg>
