<svg width="40" height="40" viewBox="0 0 40 40" fill="none" xmlns="http://www.w3.org/2000/svg">
<path d="M35.6803 36.9874C35.6513 37.0284 35.5375 37.0489 35.4879 37.1212C35.1274 37.641 33.9515 39.4838 33.5389 39.7347C32.8046 40.1809 31.2234 39.7528 30.3438 40L29.9434 39.8999L28.5195 35.9514L26.6588 34.9154L20.4295 37.1466L14.0066 34.7864L12.0407 35.7331L10.3167 39.871L6.87119 39.6816L6.50099 39.4476L3.93136 36.2203C3.28048 29.3255 2.80382 22.4536 1 15.7434C1.88316 11.4982 2.96714 7.24817 4.69475 3.26348C4.87985 2.83776 5.19077 1.93445 5.53556 1.68963C5.88036 1.44481 7.18937 1.09506 7.68418 0.937076C8.77058 0.590949 9.88965 0.322007 10.9845 0L20.3049 1.21567L23.3233 0.84783C25.1514 0.945518 27.358 0.360599 29.1365 0.481201C29.9688 0.537884 31.9783 1.37607 32.8518 1.72099C34.0204 2.1841 34.4257 2.11897 35.0197 3.29846C37.0159 7.26143 38.0564 12.1494 39 16.4658C37.4333 23.0072 36.6723 29.6415 36.0529 36.3301C35.9162 36.5387 35.8206 36.7835 35.6803 36.9862V36.9874ZM27.8601 27.0184L20.3073 29.9117L12.7387 26.899L13.0993 27.3223L20.4186 31.7195C20.6122 31.7038 20.761 31.5832 20.9267 31.5024C22.7233 30.6256 25.4211 28.9203 27.1258 27.7939C27.2576 27.7058 28.0452 27.2138 27.8601 27.0196V27.0184Z" fill="black"/>
</svg>
