<svg width="40" height="40" viewBox="0 0 40 40" fill="none" xmlns="http://www.w3.org/2000/svg">
<g clip-path="url(#clip0_540_2473)">
<path d="M28.175 21.3948C30.0322 19.7398 31.3413 17.5619 31.929 15.1494C32.5167 12.7368 32.3554 10.2033 31.4662 7.88417C30.5771 5.56501 29.0022 3.56948 26.9498 2.16164C24.8975 0.753796 22.4644 0 19.9727 0C17.4809 0 15.0479 0.753796 12.9955 2.16164C10.9431 3.56948 9.3682 5.56501 8.47908 7.88417C7.58997 10.2033 7.42858 12.7368 8.01629 15.1494C8.60399 17.5619 9.91308 19.7398 11.7703 21.3948C8.33437 22.5935 5.35665 24.8254 3.24829 27.7823C1.13993 30.7393 0.00493415 34.2754 0 37.9025C0 38.4588 0.221804 38.9923 0.616617 39.3857C1.01143 39.779 1.54691 40 2.10526 40C2.66361 40 3.1991 39.779 3.59391 39.3857C3.98872 38.9923 4.21053 38.4588 4.21053 37.9025C4.21415 34.3708 5.62391 30.9847 8.13044 28.4874C10.637 25.9901 14.0355 24.5856 17.5803 24.582H22.4197C25.9645 24.5856 29.363 25.9901 31.8696 28.4874C34.3761 30.9847 35.7859 34.3708 35.7895 37.9025C35.7895 38.4588 36.0113 38.9923 36.4061 39.3857C36.8009 39.779 37.3364 40 37.8947 40C38.4531 40 38.9886 39.779 39.3834 39.3857C39.7782 38.9923 40 38.4588 40 37.9025C39.9911 34.2688 38.8481 30.7278 36.7294 27.7701C34.6107 24.8124 31.6212 22.5844 28.175 21.3948ZM19.9727 4.30153C21.5652 4.30153 23.1219 4.77203 24.4461 5.65353C25.7702 6.53503 26.8023 7.78794 27.4117 9.25382C28.0211 10.7197 28.1806 12.3327 27.8699 13.8889C27.5592 15.4451 26.7923 16.8745 25.6662 17.9964C24.5402 19.1184 23.1054 19.8824 21.5435 20.1919C19.9816 20.5015 18.3626 20.3426 16.8913 19.7354C15.42 19.1282 14.1625 18.1 13.2777 16.7808C12.3929 15.4615 11.9207 13.9105 11.9207 12.3238C11.9207 11.2703 12.129 10.2271 12.5336 9.25382C12.9383 8.28051 13.5314 7.39614 14.2791 6.6512C15.7891 5.14673 17.8371 4.30153 19.9727 4.30153Z" fill="white"/>
</g>
<defs>
<clipPath id="clip0_540_2473">
<rect width="40" height="40" fill="white"/>
</clipPath>
</defs>
</svg>
